<svg width="41" height="43" viewBox="0 0 41 43" fill="none" xmlns="http://www.w3.org/2000/svg">
<path d="M24.9277 22.0356C25.4655 22.4198 26.1761 23.0824 27.0596 24.0234C27.943 24.9453 28.7305 26.0304 29.4219 27.2788C30.1133 28.508 30.4302 29.766 30.3726 31.0527C29.9692 34.7402 28.1351 37.5635 24.8701 39.5225C21.6051 41.4622 17.6488 42.2785 13.001 41.9712C13.001 41.9712 12.8761 41.9808 12.6265 42C12.3768 42 12.0791 42 11.7334 42C11.3877 42 11.0516 42 10.7251 42C10.3986 42 10.1297 41.9904 9.91846 41.9712C7.09521 41.7599 5.05941 41.1357 3.81104 40.0986C2.56266 39.0423 1.82324 37.9284 1.59277 36.7568C1.40072 35.9118 1.50635 35.0955 1.90967 34.3081C2.33219 33.5015 2.97559 32.9061 3.83984 32.522C4.45443 32.2723 5.17464 32.1379 6.00049 32.1187C6.84554 32.0994 7.63298 32.1379 8.36279 32.2339C9.09261 32.3107 9.58236 32.4067 9.83203 32.522C9.83203 32.522 9.736 32.714 9.54395 33.0981C9.35189 33.4631 9.15023 33.9144 8.93896 34.4521C8.74691 34.9707 8.63167 35.4893 8.59326 36.0078C8.51644 36.7952 8.58366 37.429 8.79492 37.9092C9.02539 38.3893 9.29427 38.7542 9.60156 39.0039C9.90885 39.2536 10.1681 39.4168 10.3794 39.4937C10.7251 39.6281 11.1092 39.7241 11.5317 39.7817C11.9735 39.8394 12.3576 39.8682 12.6841 39.8682C13.0106 39.8682 13.1738 39.8682 13.1738 39.8682C15.056 39.8682 16.6789 39.5321 18.0425 38.8599C19.4253 38.1877 20.2992 37.0353 20.6641 35.4028C21.0098 33.2518 20.3664 31.4465 18.7339 29.9868C17.1206 28.5272 14.9792 27.0771 12.3096 25.6367C9.79362 24.2347 7.21045 22.5446 4.56006 20.5664C3.58057 19.7021 2.64909 18.473 1.76562 16.8789C0.882161 15.2656 0.478841 13.4891 0.555664 11.5493C0.958984 7.88102 2.78353 5.07699 6.0293 3.13721C9.27507 1.19743 13.2122 0.381185 17.8408 0.688477C17.8408 0.688477 17.9561 0.688477 18.1865 0.688477C18.4362 0.688477 18.7339 0.698079 19.0796 0.717285C19.4253 0.717285 19.7614 0.726888 20.0879 0.746094C20.4144 0.746094 20.6737 0.755697 20.8657 0.774902C23.689 1.04378 25.744 1.67757 27.0308 2.67627C28.3175 3.67497 29.0762 4.75049 29.3066 5.90283C29.4987 6.74788 29.3835 7.56413 28.9609 8.35156C28.5576 9.139 27.9238 9.73438 27.0596 10.1377C26.445 10.3874 25.7152 10.5218 24.8701 10.541C24.0443 10.5602 23.2664 10.5314 22.5366 10.4546C21.8068 10.3586 21.3171 10.2529 21.0674 10.1377C21.0674 10.1377 21.1634 9.95524 21.3555 9.59033C21.5475 9.20622 21.7396 8.75488 21.9316 8.23633C22.1429 7.69857 22.2677 7.17041 22.3062 6.65186C22.4022 5.55713 22.2869 4.7985 21.9604 4.37598C21.6532 3.93424 21.3171 3.63656 20.9521 3.48291C20.9137 3.4637 20.8753 3.4445 20.8369 3.42529C20.6641 3.32926 20.4048 3.25244 20.0591 3.19482C19.7326 3.118 19.3869 3.06038 19.022 3.02197C18.6763 2.96436 18.3786 2.92594 18.1289 2.90674C17.8792 2.86833 17.7544 2.84912 17.7544 2.84912C15.8914 2.69548 14.2782 2.97396 12.9146 3.68457C11.5701 4.39518 10.6963 5.56673 10.293 7.19922C9.75521 9.8112 10.1681 11.8182 11.5317 13.2202C12.9146 14.6222 14.8639 15.9474 17.3799 17.1958C19.723 18.4058 22.2389 20.019 24.9277 22.0356ZM40.9741 38.3125C40.9741 39.3688 40.5996 40.2715 39.8506 41.0205C39.1016 41.7503 38.2085 42.1152 37.1714 42.1152C36.1151 42.1152 35.2124 41.7503 34.4634 41.0205C33.7144 40.2715 33.3398 39.3688 33.3398 38.3125C33.3398 37.2562 33.7144 36.3631 34.4634 35.6333C35.2124 34.8843 36.1151 34.5098 37.1714 34.5098C38.2085 34.5098 39.1016 34.8843 39.8506 35.6333C40.5996 36.3631 40.9741 37.2562 40.9741 38.3125Z" fill="#FFF5F5"/>
</svg>
