<svg width="54" height="51" viewBox="0 0 54 51" fill="none" xmlns="http://www.w3.org/2000/svg">
<path d="M29.3738 2.39062V3.43652C29.9708 3.55605 30.5492 3.70547 31.0716 3.85488C32.2656 4.19355 32.9745 5.5084 32.6574 6.7834C32.3402 8.0584 31.1089 8.81543 29.9149 8.47676C28.8981 8.18789 27.9466 7.98867 27.0977 7.97871C26.4167 7.96875 25.7265 8.14805 25.288 8.41699C25.0921 8.54648 24.9988 8.65605 24.9615 8.71582C24.9335 8.76562 24.8962 8.83535 24.8962 8.99473C24.8962 9.02461 24.8962 9.04453 24.8962 9.05449C24.9149 9.07441 24.9802 9.17402 25.2041 9.31348C25.7451 9.66211 26.5473 9.93105 27.76 10.3195L27.844 10.3494C28.8794 10.6781 30.26 11.1264 31.3794 11.8734C32.6574 12.7301 33.8141 14.1545 33.8421 16.3459C33.8701 18.5871 32.7786 20.2207 31.3514 21.177C30.7264 21.5854 30.0548 21.8742 29.3645 22.0535V23.1094C29.3645 24.4342 28.3664 25.5 27.1257 25.5C25.885 25.5 24.8869 24.4342 24.8869 23.1094V21.9738C24.0007 21.7447 23.1892 21.4459 22.4989 21.1969C22.303 21.1271 22.1164 21.0574 21.9392 20.9977C20.7638 20.5793 20.1295 19.2246 20.5213 17.9695C20.9131 16.7145 22.1817 16.0371 23.3571 16.4555C23.5996 16.5451 23.8235 16.6248 24.038 16.7045C25.3067 17.1627 26.2209 17.4914 27.2003 17.5312C27.9466 17.5611 28.6089 17.3719 28.9914 17.1229C29.1686 17.0033 29.2525 16.9037 29.2899 16.834C29.3272 16.7742 29.3738 16.6547 29.3645 16.4256V16.4057C29.3645 16.3061 29.3645 16.1965 28.9914 15.9475C28.4596 15.5889 27.6574 15.31 26.4634 14.9215L26.2861 14.8617C25.2787 14.543 23.9541 14.1146 22.8906 13.4273C21.6313 12.6205 20.4186 11.2359 20.4093 9.03457C20.4 6.75352 21.6127 5.18965 22.9933 4.31309C23.5903 3.93457 24.2339 3.67559 24.8776 3.49629V2.39062C24.8776 1.06582 25.8757 0 27.1164 0C28.357 0 29.3552 1.06582 29.3552 2.39062H29.3738ZM53.2729 33.4986C54.4949 35.2717 54.1404 37.7619 52.48 39.0668L40.6704 48.3604C38.4876 50.0736 35.857 51 33.1424 51H18.1799H3.25459C1.60348 51 0.269531 49.5756 0.269531 47.8125V41.4375C0.269531 39.6744 1.60348 38.25 3.25459 38.25H6.6874L10.8758 34.6641C12.9933 32.8512 15.6239 31.875 18.3384 31.875H25.6425H27.135H33.1051C34.7562 31.875 36.0902 33.2994 36.0902 35.0625C36.0902 36.8256 34.7562 38.25 33.1051 38.25H27.135H25.6425C24.8216 38.25 24.15 38.9672 24.15 39.8438C24.15 40.7203 24.8216 41.4375 25.6425 41.4375H36.8924L48.0584 32.652C49.7188 31.3471 52.0509 31.7256 53.2729 33.4986ZM18.3291 38.25H18.2452C18.2731 38.25 18.3011 38.25 18.3291 38.25Z" fill="#F1F8F0"/>
</svg>
